HIERARCHY
ROOT Hips
{
  OFFSET 196.326 95.9168 97.7182
  CHANNELS 6 Xposition Yposition Zposition Zrotation Xrotation Yrotation
  JOINT LeftUpLeg
  {
    OFFSET 8.64259 1.95398 -2.38835
    CHANNELS 3 Zrotation Xrotation Yrotation
    JOINT LeftLeg
    {
      OFFSET 43.7702 0 0
      CHANNELS 3 Zrotation Xrotation Yrotation
      JOINT LeftFoot
      {
        OFFSET 40.6238 0 0
        CHANNELS 3 Zrotation Xrotation Yrotation
        JOINT LeftToeBase
        {
          OFFSET 12.7242 0 0
          CHANNELS 3 Zrotation Xrotation Yrotation
          End Site
          {
            OFFSET 0 0 0
          }
        }
      }
    }
  }
  JOINT RightUpLeg
  {
    OFFSET -8.2249 1.95398 -2.59336
    CHANNELS 3 Zrotation Xrotation Yrotation
    JOINT RightLeg
    {
      OFFSET 43.5653 0 0
      CHANNELS 3 Zrotation Xrotation Yrotation
      JOINT RightFoot
      {
        OFFSET 40.6238 0 0
        CHANNELS 3 Zrotation Xrotation Yrotation
        JOINT RightToeBase
        {
          OFFSET 12.7242 0 0
          CHANNELS 3 Zrotation Xrotation Yrotation
          End Site
          {
            OFFSET 0 0 0
          }
        }
      }
    }
  }
  JOINT Spine
  {
    OFFSET 0.165834 0.87714 6.61349
    CHANNELS 3 Zrotation Xrotation Yrotation
    JOINT Spine1
    {
      OFFSET 7.38963 1.71661e-005 0
      CHANNELS 3 Zrotation Xrotation Yrotation
      JOINT Spine2
      {
        OFFSET 11.9445 1.14441e-005 0
        CHANNELS 3 Zrotation Xrotation Yrotation
        JOINT Spine3
        {
          OFFSET 14.7254 4.19617e-005 0
          CHANNELS 3 Zrotation Xrotation Yrotation
          JOINT Spine4
          {
            OFFSET 10.9679 0 0
            CHANNELS 3 Zrotation Xrotation Yrotation
            JOINT RightShoulder
            {
              OFFSET 2.46616 -1.6653 3.69651
              CHANNELS 3 Zrotation Xrotation Yrotation
              JOINT RightArm
              {
                OFFSET 13.0012 0 0
                CHANNELS 3 Zrotation Xrotation Yrotation
                JOINT RightForeArm
                {
                  OFFSET 28.7848 1.52588e-005 0
                  CHANNELS 3 Zrotation Xrotation Yrotation
                  JOINT RightHand
                  {
                    OFFSET 26.5688 1.52588e-005 0
                    CHANNELS 3 Zrotation Xrotation Yrotation
                    End Site
                    {
                      OFFSET 0 0 0
                    }
                  }
                }
              }
            }
            JOINT LeftShoulder
            {
              OFFSET 2.38034 -1.29275 -3.75231
              CHANNELS 3 Zrotation Xrotation Yrotation
              JOINT LeftArm
              {
                OFFSET 16.3182 6.10351e-005 0
                CHANNELS 3 Zrotation Xrotation Yrotation
                JOINT LeftForeArm
                {
                  OFFSET 27.0901 0 0
                  CHANNELS 3 Zrotation Xrotation Yrotation
                  JOINT LeftHand
                  {
                    OFFSET 24.5451 1.52588e-005 0
                    CHANNELS 3 Zrotation Xrotation Yrotation
                    End Site
                    {
                      OFFSET 0 0 0
                    }
                  }
                }
              }
            }
            JOINT Neck
            {
              OFFSET 5.0226 -0.0266342 0
              CHANNELS 3 Zrotation Xrotation Yrotation
              JOINT Head
              {
                OFFSET 6.69363 2.86102e-005 0
                CHANNELS 3 Zrotation Xrotation Yrotation
                End Site
                {
                  OFFSET 0 0 0
                }
              }
            }
          }
        }
      }
    }
  }
}
MOTION
Frames:	14
Frame Time:	0.0416667
44.2685 89.7629 45.7853 82.3411 -32.848 85.2691 -172.939 -8.1677 91.6923 -25.3349 26.5873 0.958747 51.6509 -1.80135 8.29216 81.5002 48.2209 -10.9113 -178.924 40.6395 89.9723 -29.0502 10.5596 0.329011 61.0708 -0.452283 -0.112389 48.3381 3.125 17.2414 -1.5921 7.32307 -90.3517 12.2298 -3.33096 -0.329287 0.563147 -3.34223 -0.182207 -22.0023 -3.07786 -1.31608 -1.98968 -3.07787 -1.31609 86.6733 -49.6216 -106.005 30.2717 -5.38941 35.0702 -13.3458 -21.5202 -36.638 7.35908 0.169603 3.90831 -95.5964 -34.1303 64.7077 -15.0089 -4.78596 -0.850845 15.7704 3.20692 -69.7193 12.0431 1.07627 4.83964 10.664 1.37261 -3.6432 5.34961 2.95292 7.20263 
50.7433 88.5338 51.221 83.7423 -35.8672 88.4751 -172.066 -5.9468 94.8865 -35.7287 24.8816 0.906998 38.5972 -11.4824 0.141348 59.0861 34.7016 3.90593 178.854 41.4897 94.8068 -42.82 7.70814 1.21158 65.6777 -1.74711 -0.911518 36.8154 0.629446 17.1284 -1.20825 7.38333 -90.7579 12.0936 -2.76004 -1.20855 0.425109 -2.81056 -1.08584 -22.1227 -2.26924 -1.98239 -2.11003 -2.26925 -1.9824 84.7497 -49.6595 -108.913 28.0986 -5.10864 33.6464 -12.7078 -21.9657 -34.7508 5.66359 0.113033 4.53668 -97.424 -36.5841 62.6407 -15.4804 -3.2957 2.2545 14.8295 2.53485 -69.3851 10.5502 0.839553 3.82868 11.5558 1.69249 -1.44374 3.1443 2.59654 6.88261 
56.1876 88.8716 56.461 85.725 -37.6911 89.7018 -172.388 1.96649 95.4469 -51.8299 20.7328 0.627631 37.2409 -12.0411 2.43964 44.7905 17.544 -0.968732 178.752 36.7579 96.9635 -47.0282 9.70484 0.673843 72.2099 -3.39472 -1.72343 30.9587 -0.774445 20.7395 -0.792244 7.4322 -90.6341 12 -1.87419 -1.06116 0.330014 -1.91906 -0.977644 -22.2089 -1.46865 -1.57539 -2.19623 -1.46863 -1.57539 84.9951 -49.5003 -108.593 29.4342 -5.55199 28.9944 -12.1077 -21.9918 -35.996 4.78671 0.117231 5.47242 -97.4663 -36.9649 62.7358 -19.5625 2.32857 2.49141 13.9602 4.44556 -62.3413 8.89803 0.640438 3.04033 10.8816 0.897544 -2.18154 3.2246 1.9761 6.72318 
61.67 91.0786 61.7768 85.6933 -38.7518 88.7355 -172.424 12.3912 93.7954 -58.3247 18.3769 -0.0129306 43.4692 -7.2777 7.25619 49.1016 22.3318 -0.085906 -179.729 29.8284 97.0981 -43.6174 10.515 -0.802134 73.4817 -3.47859 -1.7317 31.8257 -0.583999 20.9688 -0.460767 7.35697 -90.4415 12.1587 -1.12483 -0.757424 0.488076 -1.15707 -0.707192 -22.0481 -0.845195 -1.06046 -2.03542 -0.845204 -1.06047 84.9934 -48.3144 -108.983 31.8045 -6.24142 24.4297 -13.2901 -18.3199 -41.8059 2.6018 -0.0150119 5.27158 -98.3058 -38.5364 62.0318 -24.6224 6.48367 3.59858 14.2241 9.00713 -54.1452 9.50924 0.797616 4.13497 8.84258 0.151568 -1.77667 4.83902 1.16133 6.19257 
66.7256 93.5638 66.7307 85.889 -38.7522 88.138 -173.144 20.1922 92.3533 -54.8619 16.5881 -0.228118 48.5856 -3.47886 9.3221 54.0779 27.0974 -1.61339 -179.233 21.0981 96.9702 -36.1245 10.9067 -1.16284 73.6973 -3.41731 -1.70435 31.7923 -0.614286 21.5851 -0.272775 7.33636 -90.2057 12.1986 -0.639512 -0.338826 0.527778 -0.653781 -0.310357 -22.0079 -0.508107 -0.515362 -1.9953 -0.508109 -0.515361 84.5387 -48.7351 -109.538 32.182 -7.68071 19.8866 -13.8459 -13.429 -49.9459 -1.67165 -0.287039 3.47343 -98.5109 -39.5261 62.1254 -30.0816 9.24651 5.72002 11.6394 13.145 -44.5303 11.7 1.05305 4.87266 7.97835 -0.416705 -2.76038 4.45658 0.712892 5.5382 
72.0662 95.587 71.6178 85.0069 -42.6421 85.5546 -171.932 23.8691 89.9066 -41.1576 13.6092 -1.70818 53.1747 0.181678 11.1528 55.1021 28.9342 0.497277 -179.185 13.3329 95.0646 -28.906 6.50316 -1.90354 72.1052 -3.3217 -1.68016 32.0244 -0.523173 20.6842 0.227144 7.29606 -89.8735 12.2814 0.511398 0.194932 0.610501 0.519476 0.172234 -21.9252 0.429175 0.339623 -1.9125 0.429168 0.339617 84.9198 -47.3209 -109.429 32.7738 -8.8553 14.0693 -16.0958 -9.86595 -58.1781 -4.2048 -0.420067 3.02801 -99.0668 -40.4589 61.6321 -35.7976 9.38501 9.25835 7.40525 13.7567 -35.184 11.7972 1.0419 4.72251 7.48793 -0.452534 -1.84712 4.57461 0.360772 4.31052 
77.4898 96.3376 76.1251 82.451 -46.1737 83.1747 -172.191 25.75 89.6708 -20.9433 8.5085 -2.08754 54.3776 1.12073 11.2322 63.1699 36.7434 -0.88896 -179.716 8.0489 93.6652 -23.8636 1.59827 -2.02642 70.0321 -3.1525 -1.626 34.3951 0.0666302 20.4379 0.686335 7.16982 -89.7123 12.5318 1.50065 0.401342 0.861677 1.51685 0.3349 -21.6785 1.31065 0.833855 -1.6659 1.31064 0.833858 85.8095 -44.8214 -108.875 33.0804 -9.92725 7.833 -17.9636 -7.27987 -66.8706 -5.18698 -0.449275 2.32757 -99.506 -41.241 61.2697 -40.5528 9.31555 13.6263 5.08805 15.0082 -29.1328 9.96411 0.863804 4.43796 7.9272 -0.326683 -0.285408 4.20876 0.0270519 3.01681 
83.0677 96.1074 80.2651 80.6164 -50.1199 82.7111 -173.618 27.4167 91.9383 -5.31771 3.32013 -1.05173 58.8898 3.26522 10.1551 57.3319 34.7773 8.31285 179.454 2.97892 93.1478 -20.5129 -2.59341 -1.92742 67.5554 -2.84182 -1.50947 39.6614 1.39512 21.3312 1.14915 7.18054 -89.7713 12.513 2.39194 0.179809 0.844241 2.39752 0.0742922 -21.7067 2.22726 0.890724 -1.69405 2.22725 0.890716 87.0736 -40.5898 -108.249 33.5146 -10.8371 1.02759 -20.6348 -4.03041 -75.6785 -4.97992 -0.475873 3.52705 -99.1126 -41.8955 62.1685 -44.7237 9.23376 17.6242 4.39919 17.3941 -26.7179 7.12422 0.625486 4.25248 8.24086 -0.248619 3.07704 5.62167 -0.895603 0.0886729 
88.8109 94.7531 84.5927 81.7335 -54.0128 83.7595 -173.904 30.2104 93.5939 -4.39558 1.25583 -0.367641 62.1372 4.88047 11.8023 57.9195 35.479 8.33417 179.075 -0.788593 91.7487 -23.7465 -7.22345 -3.62924 67.6636 -3.21192 -1.70888 46.1384 2.91822 20.3412 1.56861 7.33365 -89.6861 12.2066 3.26643 0.262401 0.539703 3.27482 0.118218 -22.0246 3.03643 1.23285 -2.01194 3.03644 1.23285 87.6296 -36.915 -108.609 33.9017 -10.328 -3.50507 -22.2933 -2.12495 -82.1221 -4.9644 -0.497961 4.17013 -97.1221 -42.0458 65.3788 -47.7766 8.50824 21.8604 4.58694 19.6202 -26.155 5.61124 0.450141 3.35705 9.44407 0.00566998 3.60962 4.4544 -0.872512 -0.815929 
94.9184 92.9558 89.6421 83.6618 -55.5508 83.2504 -172.994 29.6808 91.6972 -7.38665 7.79541 -2.17924 59.1141 5.24823 13.9202 60.1622 36.8792 5.90589 177.882 -2.82133 88.7027 -31.2599 -9.55303 -6.10156 66.1826 -2.49031 -1.33426 53.2383 4.70319 20.4705 1.72797 7.44549 -89.3117 11.9712 3.76022 0.965422 0.305433 3.79905 0.798771 -22.2623 3.29611 2.05189 -2.24963 3.29612 2.05188 87.3462 -36.0733 -109.431 34.2932 -8.29222 -2.93777 -23.7409 1.23869 -86.7213 -2.10726 -0.314007 4.11617 -95.6419 -42.4328 67.8754 -48.3601 7.71421 25.3392 3.71036 19.6522 -24.5113 6.42265 0.450503 2.65666 9.36414 -0.225536 2.87154 3.77488 -0.979811 -1.35837 
102.241 91.5142 95.2906 83.2648 -55.1535 81.3434 -171.797 31.8597 89.0963 -18.4082 11.0409 -3.53061 55.3723 -0.0650733 9.20147 58.0663 30.5896 -3.20767 177.139 -2.74 85.4358 -38.1296 -8.60635 -7.00358 54.4316 0.752312 0.828448 58.329 7.35511 28.0785 1.72361 7.28214 -88.999 12.2866 3.90006 1.55802 0.620756 3.96486 1.38465 -21.942 3.25151 2.65884 -1.92939 3.2515 2.65883 87.3481 -37.9545 -108.72 33.8245 -8.71292 0.794297 -21.9074 1.32615 -87.2129 -4.50684 -0.434557 3.35523 -95.3226 -42.6697 68.4658 -47.4915 6.67815 27.1867 3.09677 21.1504 -21.6277 5.99054 0.476954 3.37602 8.09344 -0.607171 1.80891 3.8207 -1.17458 -2.16498 
108.887 90.7644 100.591 83.929 -53.346 79.6873 -170.502 32.6104 85.172 -29.9676 13.2716 -4.55199 57.7127 3.38036 14.8166 53.904 20.3906 -23.9424 177.451 2.52568 83.1988 -49.6982 -1.92783 -7.17311 36.9685 3.89483 4.32133 38.5779 2.41493 25.4758 1.4706 7.25096 -88.6994 12.3357 3.53959 2.19705 0.667994 3.63283 2.03904 -21.8773 2.71593 3.15923 -1.86467 2.71594 3.15924 86.0626 -40.8482 -109.864 33.004 -9.40541 6.09835 -21.4067 -0.683287 -82.1935 -6.93458 -0.502432 1.70759 -96.1144 -43.4305 67.4813 -45.1958 6.3744 26.0473 2.29094 21.6463 -18.557 5.1079 0.424711 3.53635 7.84151 -0.70629 1.03631 3.71067 -1.09972 -2.0906 
114.719 91.2466 105.059 86.6662 -51.4323 81.1472 -170.773 28.023 83.2184 -33.4338 14.013 -4.74076 61.0934 7.57547 17.7395 47.8185 14.9745 -30.2541 178.462 10.012 83.2924 -62.3245 8.62562 -6.54071 37.5417 1.733 2.34543 23.9434 -2.06463 15.5412 1.07251 7.40272 -88.6751 12.0352 2.7576 2.34154 0.365273 2.85794 2.2179 -22.166 1.92674 3.06172 -2.15332 1.92673 3.06172 84.6646 -43.1792 -111.31 33.2318 -10.2509 10.2769 -20.9038 -5.52855 -72.1213 -6.73118 -0.540461 2.52117 -97.157 -42.9552 65.6681 -44.0691 6.13513 22.6936 2.43392 18.5111 -18.7116 6.65265 0.572092 4.00348 7.58247 -0.147917 0.747742 4.19354 -0.479441 -1.88874 
120.777 93.2599 109.62 86.2462 -49.4789 82.3244 -172.634 21.7553 83.3169 -29.8391 13.7164 -3.35334 61.3463 7.83235 17.262 47.4108 15.1268 -27.6599 179.068 18.2873 86.2291 -65.9587 9.73658 -5.52254 44.8744 0.200048 0.645279 32.4211 -0.215392 14.1294 0.697653 7.35759 -88.9558 12.1403 1.88065 1.87577 0.469434 1.96137 1.79119 -22.0603 1.23013 2.35409 -2.04768 1.23012 2.35408 84.0533 -45.4008 -111.465 33.8583 -10.2073 13.6431 -18.8071 -10.2768 -60.9029 -4.57667 -0.453772 2.88055 -97.5643 -42.6813 64.9225 -41.6757 6.23354 18.677 3.74547 13.5534 -23.8037 10.6149 0.881394 4.15332 7.87719 0.638011 0.901499 3.64855 0.332847 -1.16775 
